<svg width="199" height="60" viewBox="0 0 199 60" fill="none" xmlns="http://www.w3.org/2000/svg">
<path d="M0.0746155 45V16.399H16.3772V19.1161H0.932645L3.00622 17.0425V30.485L0.932645 28.5187H11.5865V31.2358H0.932645L3.00622 29.2694V44.2492L1.0399 42.2829H16.3772V45H0.0746155Z" fill="#050209"/>
<path d="M32.916 45.5005C31.4145 45.5005 30.2228 45.2502 29.3409 44.7497C28.4829 44.2492 27.8751 43.415 27.5176 42.2471C27.1601 41.0554 26.9813 39.4347 26.9813 37.385V19.1161H22.4767V16.399H29.9129V37.385C29.9129 38.7435 30.0083 39.8161 30.1989 40.6026C30.3896 41.3891 30.6994 41.9492 31.1285 42.2829C31.5575 42.6166 32.1533 42.7834 32.916 42.7834C33.3927 42.7834 33.8575 42.6642 34.3103 42.4259C34.787 42.1876 35.3948 41.7466 36.1336 41.1031L37.8139 43.6414C36.8367 44.3326 35.9906 44.8093 35.2756 45.0715C34.5844 45.3575 33.7979 45.5005 32.916 45.5005Z" fill="#050209"/>
<path d="M72.5719 45.5005C70.832 45.5005 69.3662 45.2383 68.1745 44.714C67.0067 44.1896 66.0652 43.3554 65.3502 42.2114C64.6352 41.0435 64.1227 39.5181 63.8129 37.6352C63.5269 35.7285 63.3839 33.4047 63.3839 30.6637C63.3839 27.9228 63.5269 25.6109 63.8129 23.728C64.1227 21.8451 64.6352 20.3316 65.3502 19.1876C66.0652 18.0436 67.0067 17.2094 68.1745 16.685C69.3662 16.1607 70.832 15.8985 72.5719 15.8985C74.145 15.8985 75.444 16.113 76.4688 16.542C77.5175 16.9472 78.3756 17.6384 79.0429 18.6156C79.7103 19.569 80.2942 20.8798 80.7947 22.5482L77.9704 23.5493C77.589 22.2622 77.1719 21.2612 76.7191 20.5462C76.2901 19.8311 75.7538 19.3306 75.1103 19.0446C74.4668 18.7586 73.6206 18.6156 72.5719 18.6156C70.9989 18.6156 69.7595 18.985 68.8538 19.7239C67.9481 20.4389 67.2927 21.6783 66.8875 23.442C66.5062 25.1819 66.3155 27.5891 66.3155 30.6637C66.3155 33.7384 66.5062 36.1575 66.8875 37.9212C67.2927 39.685 67.9481 40.9363 68.8538 41.6751C69.7595 42.414 70.9989 42.7834 72.5719 42.7834C73.6206 42.7834 74.4668 42.6404 75.1103 42.3544C75.7538 42.0684 76.2901 41.5798 76.7191 40.8886C77.1719 40.1974 77.589 39.2202 77.9704 37.957L80.7947 38.9223C80.2942 40.5668 79.7103 41.8777 79.0429 42.8549C78.3756 43.8083 77.5294 44.4876 76.5046 44.8927C75.4797 45.2979 74.1688 45.5005 72.5719 45.5005Z" fill="#050209"/>
<path d="M86.644 45V22.9057H89.5756V25.9446C89.8854 25.3726 90.3144 24.8244 90.8626 24.3C91.4108 23.7518 92.0662 23.299 92.8289 22.9415C93.5916 22.584 94.4258 22.4052 95.3315 22.4052C96.5709 22.4052 97.6077 22.5601 98.4419 22.87C99.2761 23.1798 99.9792 23.7042 100.551 24.443C101.147 25.1581 101.683 26.1353 102.16 27.3746L99.5144 28.5902C99.2046 27.6845 98.8709 26.9814 98.5134 26.4809C98.1797 25.9803 97.7626 25.6347 97.2621 25.4441C96.7854 25.2296 96.1419 25.1223 95.3315 25.1223C94.2351 25.1223 93.3175 25.3606 92.5787 25.8373C91.8398 26.2902 91.2559 26.898 90.8269 27.6606C90.3978 28.4233 90.0761 29.2694 89.8616 30.199C89.6709 31.1047 89.5756 32.0104 89.5756 32.9161V45H86.644Z" fill="#050209"/>
<path d="M114.373 45V23.7638L116.232 25.6228H109.868V22.9057H117.305V45H114.373ZM108.116 45V42.2829H123.561V45H108.116ZM115.088 19.0088C114.111 19.0088 113.443 18.842 113.086 18.5083C112.728 18.1508 112.55 17.5192 112.55 16.6135C112.55 15.684 112.728 15.0524 113.086 14.7187C113.443 14.3612 114.111 14.1824 115.088 14.1824C116.065 14.1824 116.733 14.3612 117.09 14.7187C117.448 15.0524 117.626 15.684 117.626 16.6135C117.626 17.5192 117.448 18.1508 117.09 18.5083C116.733 18.842 116.065 19.0088 115.088 19.0088Z" fill="#050209"/>
<path d="M135.452 45.5005C134.237 45.5005 133.2 45.3694 132.342 45.1072C131.484 44.8451 130.745 44.4041 130.125 43.7844C129.506 43.1409 128.91 42.3067 128.338 41.2819L130.662 39.3513C131.091 40.2332 131.496 40.9243 131.877 41.4249C132.282 41.9254 132.759 42.2829 133.307 42.4974C133.879 42.6881 134.594 42.7834 135.452 42.7834C137.168 42.7834 138.491 42.6642 139.421 42.4259C140.35 42.1637 141.006 41.7466 141.387 41.1746C141.768 40.6026 141.959 39.8041 141.959 38.7793C141.959 37.8497 141.792 37.1347 141.458 36.6342C141.149 36.1098 140.6 35.7166 139.814 35.4544C139.027 35.1922 137.907 34.9658 136.453 34.7751C134.618 34.5368 133.128 34.1912 131.984 33.7383C130.864 33.2617 130.042 32.6301 129.517 31.8435C129.017 31.0332 128.767 30.0202 128.767 28.8047C128.767 27.2316 129.029 25.9803 129.553 25.0508C130.101 24.0974 130.995 23.4182 132.235 23.013C133.474 22.6078 135.142 22.4052 137.24 22.4052C138.527 22.4052 139.611 22.5244 140.493 22.7627C141.375 22.9772 142.138 23.3467 142.781 23.871C143.425 24.3954 144.032 25.1104 144.604 26.0161L142.459 28.1254C142.03 27.3389 141.589 26.7311 141.137 26.3021C140.708 25.8731 140.195 25.5752 139.599 25.4083C139.003 25.2176 138.217 25.1223 137.24 25.1223C135.81 25.1223 134.689 25.2415 133.879 25.4798C133.069 25.6943 132.497 26.0757 132.163 26.6239C131.853 27.1482 131.698 27.8752 131.698 28.8047C131.698 29.7342 132.068 30.4373 132.807 30.914C133.545 31.3669 134.809 31.7244 136.596 31.9865C138.67 32.2487 140.314 32.6301 141.53 33.1306C142.745 33.6311 143.603 34.3223 144.104 35.2042C144.628 36.086 144.891 37.2777 144.891 38.7793C144.891 40.4477 144.593 41.7705 143.997 42.7477C143.401 43.7249 142.412 44.428 141.029 44.857C139.671 45.286 137.812 45.5005 135.452 45.5005Z" fill="#050209"/>
<path d="M157.783 45.5005C155.709 45.5005 154.065 45.1311 152.849 44.3922C151.657 43.6534 150.799 42.4378 150.275 40.7456C149.774 39.0295 149.524 36.7653 149.524 33.9529C149.524 31.1166 149.774 28.8524 150.275 27.1601C150.799 25.4679 151.657 24.2524 152.849 23.5135C154.065 22.7746 155.709 22.4052 157.783 22.4052C159.856 22.4052 161.489 22.7746 162.681 23.5135C163.896 24.2524 164.754 25.4679 165.255 27.1601C165.779 28.8524 166.041 31.1166 166.041 33.9529C166.041 36.7653 165.779 39.0295 165.255 40.7456C164.754 42.4378 163.896 43.6534 162.681 44.3922C161.489 45.1311 159.856 45.5005 157.783 45.5005ZM157.783 42.7834C159.141 42.7834 160.202 42.5212 160.965 41.9969C161.751 41.4487 162.299 40.5311 162.609 39.244C162.943 37.957 163.11 36.1933 163.11 33.9529C163.11 31.6886 162.943 29.9249 162.609 28.6617C162.299 27.3746 161.751 26.4689 160.965 25.9446C160.202 25.3964 159.141 25.1223 157.783 25.1223C156.424 25.1223 155.352 25.3964 154.565 25.9446C153.802 26.4689 153.254 27.3746 152.921 28.6617C152.611 29.9249 152.456 31.6886 152.456 33.9529C152.456 36.1933 152.611 37.957 152.921 39.244C153.254 40.5311 153.802 41.4487 154.565 41.9969C155.352 42.5212 156.424 42.7834 157.783 42.7834Z" fill="#050209"/>
<path d="M182.973 45.5005C181.472 45.5005 180.28 45.2502 179.398 44.7497C178.54 44.2492 177.932 43.415 177.575 42.2471C177.217 41.0554 177.039 39.4347 177.039 37.385V19.1161H172.534V16.399H179.97V37.385C179.97 38.7435 180.066 39.8161 180.256 40.6026C180.447 41.3891 180.757 41.9492 181.186 42.2829C181.615 42.6166 182.211 42.7834 182.973 42.7834C183.45 42.7834 183.915 42.6642 184.368 42.4259C184.844 42.1876 185.452 41.7466 186.191 41.1031L187.871 43.6414C186.894 44.3326 186.048 44.8093 185.333 45.0715C184.642 45.3575 183.855 45.5005 182.973 45.5005Z" fill="#050209"/>
<path d="M50.5 1.5H197.5V58.5H50.5V1.5Z" stroke="#050209" stroke-width="3"/>
</svg>
